<svg width="187" height="49" viewBox="0 0 187 49" fill="none" xmlns="http://www.w3.org/2000/svg">
<path d="M-0.00977397 9.56818V1.45454H38.2175V9.56818H23.9675V48H14.2402V9.56818H-0.00977397ZM53.7139 1.45454V48H43.873V1.45454H53.7139ZM59.3977 9.56818V1.45454H97.625V9.56818H83.375V48H73.6477V9.56818H59.3977ZM101.508 9.56818V1.45454H139.735V9.56818H125.485V48H115.758V9.56818H101.508ZM186.038 24.7273C186.038 29.803 185.076 34.1212 183.152 37.6818C181.243 41.2424 178.637 43.9621 175.334 45.8409C172.046 47.7045 168.349 48.6364 164.243 48.6364C160.106 48.6364 156.394 47.697 153.106 45.8182C149.818 43.9394 147.22 41.2197 145.311 37.6591C143.402 34.0985 142.447 29.7879 142.447 24.7273C142.447 19.6515 143.402 15.3333 145.311 11.7727C147.22 8.21212 149.818 5.5 153.106 3.63636C156.394 1.75757 160.106 0.81818 164.243 0.81818C168.349 0.81818 172.046 1.75757 175.334 3.63636C178.637 5.5 181.243 8.21212 183.152 11.7727C185.076 15.3333 186.038 19.6515 186.038 24.7273ZM176.061 24.7273C176.061 21.4394 175.568 18.6667 174.584 16.4091C173.614 14.1515 172.243 12.4394 170.47 11.2727C168.697 10.1061 166.622 9.52273 164.243 9.52273C161.864 9.52273 159.788 10.1061 158.015 11.2727C156.243 12.4394 154.864 14.1515 153.879 16.4091C152.909 18.6667 152.425 21.4394 152.425 24.7273C152.425 28.0152 152.909 30.7879 153.879 33.0455C154.864 35.303 156.243 37.0152 158.015 38.1818C159.788 39.3485 161.864 39.9318 164.243 39.9318C166.622 39.9318 168.697 39.3485 170.47 38.1818C172.243 37.0152 173.614 35.303 174.584 33.0455C175.568 30.7879 176.061 28.0152 176.061 24.7273Z" fill="#3E68FF"/>
</svg>
